<svg width="20" height="18" viewBox="0 0 20 18" fill="none" xmlns="http://www.w3.org/2000/svg">
<path d="M17 17.75C16.3756 17.75 15.8195 17.5625 15.3317 17.1875C14.8439 16.8125 14.5224 16.3333 14.3673 15.75H8.99998C7.96408 15.75 7.08011 15.3839 6.34808 14.6519C5.61603 13.9199 5.25 13.0359 5.25 12C5.25 10.9641 5.61603 10.0801 6.34808 9.3481C7.08011 8.61605 7.96408 8.25002 8.99998 8.25002H11C11.6187 8.25002 12.1484 8.02952 12.5891 7.58852C13.0297 7.14752 13.25 6.61739 13.25 5.99812C13.25 5.37886 13.0297 4.84935 12.5891 4.4096C12.1484 3.96985 11.6187 3.74997 11 3.74997H5.63265C5.46727 4.33331 5.14323 4.81247 4.66055 5.18747C4.17785 5.56247 3.62433 5.74997 2.99998 5.74997C2.23609 5.74997 1.58679 5.48272 1.05208 4.94822C0.517358 4.41372 0.25 3.76469 0.25 3.00112C0.25 2.23756 0.517358 1.58815 1.05208 1.0529C1.58679 0.517649 2.23609 0.250023 2.99998 0.250023C3.62433 0.250023 4.17785 0.437523 4.66055 0.812523C5.14323 1.18752 5.46727 1.66669 5.63265 2.25002H11C12.0359 2.25002 12.9198 2.61605 13.6519 3.3481C14.3839 4.08013 14.75 4.9641 14.75 6C14.75 7.0359 14.3839 7.91987 13.6519 8.6519C12.9198 9.38395 12.0359 9.74997 11 9.74997H8.99998C8.38123 9.74997 7.85153 9.97048 7.4109 10.4115C6.97027 10.8525 6.74995 11.3826 6.74995 12.0019C6.74995 12.6211 6.97027 13.1506 7.4109 13.5904C7.85153 14.0301 8.38123 14.25 8.99998 14.25H14.3673C14.5327 13.6667 14.8567 13.1875 15.3394 12.8125C15.8221 12.4375 16.3756 12.25 17 12.25C17.7639 12.25 18.4132 12.5173 18.9479 13.0518C19.4826 13.5863 19.75 14.2353 19.75 14.9989C19.75 15.7624 19.4826 16.4119 18.9479 16.9471C18.4132 17.4824 17.7639 17.75 17 17.75ZM2.99998 4.25002C3.34741 4.25002 3.64261 4.12855 3.88558 3.8856C4.12853 3.64263 4.25 3.34743 4.25 3C4.25 2.65257 4.12853 2.35737 3.88558 2.1144C3.64261 1.87145 3.34741 1.74997 2.99998 1.74997C2.65254 1.74997 2.35734 1.87145 2.11438 2.1144C1.87143 2.35737 1.74995 2.65257 1.74995 3C1.74995 3.34743 1.87143 3.64263 2.11438 3.8856C2.35734 4.12855 2.65254 4.25002 2.99998 4.25002Z" fill="#1C1B1F"/>
</svg>
