<svg width="2" height="14" viewBox="0 0 2 14" fill="none" xmlns="http://www.w3.org/2000/svg">
<path d="M-4.37114e-08 1.46152C-3.16908e-08 1.18652 0.0979166 0.951108 0.29375 0.755275C0.489583 0.559442 0.725 0.461525 1 0.461525C1.275 0.461525 1.51042 0.559442 1.70625 0.755275C1.90208 0.951108 2 1.18652 2 1.46152C2 1.73654 1.90208 1.97197 1.70625 2.1678C1.51042 2.36363 1.275 2.46155 1 2.46155C0.725 2.46155 0.489583 2.36363 0.29375 2.1678C0.0979165 1.97197 -5.57327e-08 1.73654 -4.37114e-08 1.46152ZM-2.85806e-07 7C-2.73785e-07 6.725 0.0979163 6.48958 0.29375 6.29375C0.489583 6.09792 0.725 6 1 6C1.275 6 1.51042 6.09792 1.70625 6.29375C1.90208 6.48958 2 6.725 2 7C2 7.275 1.90208 7.51042 1.70625 7.70625C1.51042 7.90208 1.275 8 1 8C0.725 8 0.489583 7.90208 0.29375 7.70625C0.0979163 7.51042 -2.97826e-07 7.275 -2.85806e-07 7ZM-5.279e-07 12.5385C-5.15879e-07 12.2635 0.0979161 12.028 0.293749 11.8322C0.489583 11.6364 0.725 11.5385 1 11.5385C1.275 11.5385 1.51042 11.6364 1.70625 11.8322C1.90208 12.028 2 12.2635 2 12.5385C2 12.8135 1.90208 13.0489 1.70625 13.2447C1.51042 13.4406 1.275 13.5385 0.999999 13.5385C0.724999 13.5385 0.489583 13.4406 0.293749 13.2447C0.0979161 13.0489 -5.39921e-07 12.8135 -5.279e-07 12.5385Z" fill="#1C1B1F"/>
</svg>
